<svg viewBox="0 0 128 128" xmlns="http://www.w3.org/2000/svg">
  <defs>
    <linearGradient id="backgroundGradient" x1="0%" y1="0%" x2="100%" y2="100%">
      <stop offset="0%" style="stop-color:#5865F2;stop-opacity:1" />
      <stop offset="100%" style="stop-color:#3B44B8;stop-opacity:1" />
    </linearGradient>
    <linearGradient id="iconGradient" x1="0%" y1="0%" x2="100%" y2="100%">
      <stop offset="0%" style="stop-color:#FFFFFF;stop-opacity:1" />
      <stop offset="100%" style="stop-color:#F0F0F0;stop-opacity:1" />
    </linearGradient>
  </defs>
  
  <!-- Background circle -->
  <circle cx="64" cy="64" r="60" fill="url(#backgroundGradient)" stroke="#2E3856" stroke-width="2"/>
  
  <!-- Discord-style message bubble -->
  <rect x="20" y="35" width="88" height="58" rx="8" ry="8" fill="url(#iconGradient)" stroke="#E0E0E0" stroke-width="1"/>
  
  <!-- Message lines (representing embed content) -->
  <rect x="28" y="42" width="72" height="4" rx="2" fill="#5865F2"/>
  <rect x="28" y="50" width="60" height="3" rx="1.5" fill="#6B7280"/>
  <rect x="28" y="57" width="68" height="3" rx="1.5" fill="#6B7280"/>
  <rect x="28" y="64" width="45" height="3" rx="1.5" fill="#6B7280"/>
  
  <!-- Embed color bar (left side) -->
  <rect x="20" y="35" width="4" height="58" rx="2" fill="#00D4FF"/>
  
  <!-- Send/Arrow icon -->
  <g transform="translate(76, 72)">
    <circle cx="12" cy="12" r="12" fill="#5865F2"/>
    <path d="M8 12 L16 8 L16 16 Z" fill="white"/>
  </g>
  
  <!-- Small decorative elements (representing fields/options) -->
  <circle cx="30" cy="75" r="2" fill="#9CA3AF"/>
  <circle cx="38" cy="75" r="2" fill="#9CA3AF"/>
  <circle cx="46" cy="75" r="2" fill="#9CA3AF"/>
</svg>