<svg viewBox="0 0 24 24" xmlns="http://www.w3.org/2000/svg">
  <defs>
    <linearGradient id="previewGradient" x1="0%" y1="0%" x2="100%" y2="100%">
      <stop offset="0%" style="stop-color:#6B73FF;stop-opacity:1" />
      <stop offset="100%" style="stop-color:#9942FF;stop-opacity:1" />
    </linearGradient>
  </defs>
  
  <!-- Monitor/Screen outline -->
  <rect x="2" y="4" width="20" height="14" rx="2" ry="2" fill="url(#previewGradient)" stroke="#4A5568" stroke-width="1"/>
  
  <!-- Screen content -->
  <rect x="4" y="6" width="16" height="10" rx="1" fill="#2D3748"/>
  
  <!-- Preview lines -->
  <rect x="6" y="8" width="12" height="1.5" rx="0.75" fill="#E2E8F0"/>
  <rect x="6" y="10.5" width="8" height="1" rx="0.5" fill="#A0AEC0"/>
  <rect x="6" y="12.5" width="10" height="1" rx="0.5" fill="#A0AEC0"/>
  <rect x="6" y="14.5" width="6" height="1" rx="0.5" fill="#A0AEC0"/>
  
  <!-- Stand -->
  <rect x="10" y="18" width="4" height="2" rx="2" fill="#718096"/>
  <rect x="8" y="20" width="8" height="1" rx="0.5" fill="#4A5568"/>
  
  <!-- Eye icon for preview -->
  <g transform="translate(16, 6)">
    <circle cx="2" cy="2" r="2" fill="white" opacity="0.9"/>
    <path d="M0.5 2 C0.5 2 1.5 1 2 1 C2.5 1 3.5 2 3.5 2 C3.5 2 2.5 3 2 3 C1.5 3 0.5 2 0.5 2 Z" fill="#4A5568"/>
    <circle cx="2" cy="2" r="0.5" fill="white"/>
  </g>
</svg>